# AST/ASF file generated using VICON BodyLanguage
# -----------------------------------------------
:version 1.10
:name VICON
:units
  mass 1.0
  length 0.45
  angle deg
:documentation
   .ast/.asf automatically generated from VICON data using
   VICON BodyBuilder and BodyLanguage model FoxedUp or BRILLIANT.MOD
:root
   order TX TY TZ RX RY RZ
   axis XYZ
   position 0 0 0  
   orientation 0 0 0 
:bonedata
  begin
     id 1 
     name lhipjoint
     direction 0.678564 -0.644259 0.352817 
     length 2.99514 
     axis 0 0 0  XYZ
  end
  begin
     id 2 
     name lfemur
     direction 0.34202 -0.939693 0  
     length 7.29983  
     axis 0 0 20  XYZ
    dof rx ry rz
    limits (-160.0 20.0)
           (-70.0 70.0)
           (-60.0 70.0)
  end
  begin
     id 3 
     name ltibia
     direction 0.34202 -0.939693 0   
     length 8.59502   
     axis 0 0 20   XYZ
    dof rx
    limits (-10.0 170.0)
  end
  begin
     id 4 
     name lfoot
     direction 0.256607 -0.705022 0.661133   
     length 2.92136   
     axis -90 7.62852e-016 20   XYZ
    dof rx rz
    limits (-45.0 90.0)
           (-70.0 20.0)
  end
  begin
     id 5 
     name ltoes
     direction 1.53673e-011 -4.22167e-011 1   
     length 1.31421   
     axis -90 7.62852e-016 20   XYZ
    dof rx
    limits (-90.0 20.0)
  end
  begin
     id 6 
     name rhipjoint
     direction -0.664671 -0.655307 0.358867   
     length 2.94464  
     axis 0 0 0  XYZ 
  end
  begin
     id 7 
     name rfemur
     direction -0.34202 -0.939693 0   
     length 7.1902   
     axis 0 0 -20   XYZ
    dof rx ry rz
    limits (-160.0 20.0)
           (-70.0 70.0)
           (-70.0 60.0)
  end
  begin
     id 8 
     name rtibia
     direction -0.342306 -0.939589 0   
     length 7.92304   
     axis 0 0 -20   XYZ
    dof rx
    limits (-10.0 170.0)
 end
 begin
     id 9 
     name rfoot
     direction -0.135083 -0.371136 0.9187   
     length 2.14777  
     axis -90 -7.62852e-016 -20   XYZ
    dof rx rz
    limits (-45.0 90.0)
           (-20.0 70.0)
  end
  begin
     id 10 
     name rtoes
     direction -1.53535e-011 -4.21537e-011 1   
     length 1.05997   
     axis -90 -7.62852e-016 -20   XYZ
    dof rx
    limits (-90.0 20.0)
  end
  begin
     id 11 
     name lowerback
     direction -0.0195507 0.995133 0.0965771   
     length 2.09792   
     axis 0 0 0   XYZ
    dof rx ry rz
    limits (-20.0 45.0)
           (-30.0 30.0)
           (-30.0 30.0)
  end
  begin
     id 12 
     name upperback
     direction 0.00551419 0.999637 0.0263729   
     length 2.10514   
     axis 0 0 0   XYZ
    dof rx ry rz
    limits (-20.0 45.0)
           (-30.0 30.0)
           (-30.0 30.0)
  end
  begin
     id 13 
     name thorax
     direction 0.0138853 0.999728 -0.0187549   
     length 2.12411   
     axis 0 0 0   XYZ
    dof rx ry rz
    limits (-20.0 45.0)
           (-30.0 30.0)
           (-30.0 30.0)
  end
  begin
     id 14 
     name lowerneck
     direction 0.00575564 0.995441 0.0952053   
     length 2.98955   
     axis 0 0 0   XYZ
    dof rx ry rz
    limits (-20.0 45.0)
           (-30.0 30.0)
           (-30.0 30.0)
  end
  begin
     id 15 
     name upperneck
     direction 0.0362743 0.998452 -0.0421753   
     length 3.03688   
     axis 0 0 0   XYZ
    dof rx ry rz
    limits (-20.0 45.0)
           (-30.0 30.0)
           (-30.0 30.0)
  end
  begin
     id 16
     name head
     direction -0.0138164 0.799054 0.6011  
     length 1.47017  
     axis 0 0 0   XYZ
    dof rx ry rz
    limits (-20.0 45.0)
           (-30.0 30.0)
           (-30.0 30.0)
  end
  begin
     id 17 
     name lclavicle
     direction 0.925636 0.378361 -0.006363  
     length 3.33831  
     axis 0 0 0   XYZ
    dof ry rz
    limits (-20.0 10.0)
           (0.0 20.0)
  end
  begin
     id 18 
     name lhumerus
     direction 1 -4.48983e-011 -5.50319e-028   
     length 4.79344   
     axis -180 -30 -90   XYZ
    dof rx ry rz
    limits (-60.0 90.0)
           (-90.0 90.0)
           (-90.0 90.0)
  end
  begin
     id 19
     name lradius
     direction 1 -4.48905e-011 9.20478e-027   
     length 2.94221   
     axis -180 -30 -90   XYZ
    dof rx
    limits (-10.0 170.0)
  end
  begin
     id 20
     name lwrist
     direction 1 -4.4898e-011 2.08228e-026   
     length 1.4711   
     axis -1.38353e-014 90 90   XYZ
    dof ry
    limits (-180.0 0.0)
 end
  begin
     id 21 
     name lhand
     direction 1 -4.48957e-011 4.16456e-026   
     length 0.889984   
     axis -2.65735e-014 90 90   XYZ
    dof rx rz
    limits (-90.0 90.0)
           (-45.0 45.0)
  end
  begin
     id 22 
     name lfingers
     direction 1 -4.49044e-011 8.32913e-026   
     length 0.717528   
     axis -5.3147e-014 90 90   XYZ
    dof rx
    limits (0.0 90.0)
  end
  begin
     id 23
     name lthumb
     direction 0.707107 -6.35171e-011 0.707107   
     length 1.03023   
     axis -90 45 2.85299e-015   XYZ
    dof rx rz
    limits (-45.0 45.0)
           (-45.0 45.0)
  end
  begin
     id 24 
     name rclavicle
     direction -0.892514 0.445149 0.0725343   
     length 3.17271  
     axis 0 0 0   XYZ 
    dof ry rz
    limits (-10.0 20.0)
           (-20.0 0.0)
  end
  begin
     id 25 
     name rhumerus
     direction -1 -4.48952e-011 5.59695e-028  
     length 5.4863   
     axis -180 30 90   XYZ
    dof rx ry rz
    limits (-90.0 60.0)
           (-90.0 90.0)
           (-90.0 90.0)
  end
  begin
     id 26 
     name rradius
     direction -1 -4.48963e-011 1.14146e-026   
     length 3.17201   
     axis -180 30 90   XYZ
    dof rx
    limits (-10.0 170.0)
  end
  begin
     id 27 
     name rwrist
     direction -1 -4.49046e-011 2.08228e-026   
     length 1.58601   
     axis -1.38353e-014 -90 -90   XYZ
    dof ry
    limits (-180.0 0.0)
  end
  begin
     id 28
     name rhand
     direction -1 -4.48815e-011 4.16456e-026   
     length 0.874513   
     axis -2.65735e-014 -90 -90   XYZ
    dof rx rz
    limits (-90.0 90.0)
           (-45.0 45.0)
  end
  begin
     id 29
     name rfingers
     direction -1 -4.48918e-011 8.32913e-026   
     length 0.705055   
     axis -5.3147e-014 -90 -90   XYZ
    dof rx
    limits (0.0 90.0)
  end
  begin
     id 30
     name rthumb
     direction -0.707107 -6.34858e-011 0.707107   
     length 1.01232   
     axis -90 -45 -2.85299e-015   XYZ
    dof rx rz
    limits (-45.0 45.0)
           (-45.0 45.0)
  end
:hierarchy
  begin
    root lhipjoint rhipjoint lowerback
    lhipjoint lfemur
    lfemur ltibia
    ltibia lfoot
    lfoot ltoes
    rhipjoint rfemur
    rfemur rtibia
    rtibia rfoot
    rfoot rtoes
    lowerback upperback
    upperback thorax
    thorax lowerneck lclavicle rclavicle
    lowerneck upperneck
    upperneck head
    lclavicle lhumerus
    lhumerus lradius
    lradius lwrist
    lwrist lhand lthumb
    lhand lfingers
    rclavicle rhumerus
    rhumerus rradius
    rradius rwrist
    rwrist rhand rthumb
    rhand rfingers
  end

#!OML:ASF F:\VICON\USERDATA\INSTALL\rory3\rory3.ASF
:FULLY-SPECIFIED
:DEGREES
1749
root 3.31044 18.6159 -2.08543 -114.372 79.6528 -128.413
lowerback -7.42186 -2.14915 -12.5929
upperback 0.0341499 -1.08847 -6.72509
thorax 4.37867 -0.570227 -0.162265
lowerneck -17.3205 -8.63263 -15.7552
upperneck 4.12292 44.2957 0.537085
head 24.9482 54.6359 175.299
rclavicle 4.77083e-014 1.01778e-013
rhumerus -101.674 47.7894 -127.831
rradius 96.6574
rwrist 20.9217
rhand -48.3831 3.42476
rfingers 7.12502
rthumb -21.0365 -25.4543
lclavicle 4.77083e-014 1.01778e-013
lhumerus -17.5926 37.9854 40.0527
lradius 104.215
lwrist 4.5129
lhand -11.1731 15.3396
lfingers 7.12502
lthumb 14.8538 44.7872
rfemur -14.7487 10.8849 22.203
rtibia 15.474
rfoot -10.1828 -16.1417
rtoes -20.262
lfemur -18.2056 -8.94072 -16.8215
ltibia 22.4117
lfoot -4.75722 7.28816
ltoes -11.6002
1750
root 3.31452 18.6099 -2.09346 -115.094 79.6378 -129.148
lowerback -7.38153 -2.18873 -12.5368
upperback -0.00931222 -1.16402 -6.6774
thorax 4.31506 -0.604038 -0.148328
lowerneck -17.4025 -8.63118 -15.7611
upperneck 4.14963 44.5512 0.506877
head 25.0923 54.6192 175.429
rclavicle -8.74653e-015 5.08889e-014
rhumerus -101.702 47.8066 -127.888
rradius 96.6527
rwrist 20.9618
rhand -48.5805 3.37665
rfingers 7.12502
rthumb -21.2261 -25.4812
lclavicle -8.74653e-015 5.08889e-014
lhumerus -17.8327 37.9886 40.0043
lradius 104.231
lwrist 4.50321
lhand -11.4055 15.3374
lfingers 7.12502
lthumb 14.6299 44.8014
rfemur -14.7391 10.8264 22.1362
rtibia 15.5201
rfoot -10.3093 -16.2185
rtoes -20.3875
lfemur -18.2454 -8.98372 -16.9151
ltibia 22.457
lfoot -4.8989 7.30771
ltoes -11.7229
1751
root 3.32 18.606 -2.10281 -115.738 79.6252 -129.823
lowerback -7.40914 -2.22927 -12.4869
upperback -0.0359943 -1.22717 -6.61478
thorax 4.30727 -0.635303 -0.116539
lowerneck -17.5132 -8.61494 -15.7616
upperneck 4.17364 44.7697 0.503864
head 25.1604 54.6037 175.426
rclavicle -1.82882e-014 -9.54166e-015
rhumerus -101.75 47.8609 -127.929
rradius 96.6536
rwrist 21.0628
rhand -48.8743 3.12305
rfingers 7.12502
rthumb -21.5083 -25.7028
lclavicle -1.82882e-014 -9.54166e-015
lhumerus -18.1286 37.9599 39.9195
lradius 104.268
lwrist 4.48336
lhand -11.4631 15.4292
lfingers 7.12502
lthumb 14.5744 44.8972
rfemur -14.7575 10.9631 22.0404
rtibia 15.577
rfoot -10.4567 -16.5001
rtoes -20.5533
lfemur -18.3035 -8.99652 -17.0134
ltibia 22.5061
lfoot -5.03917 7.34471
ltoes -11.7421
1752
root 3.32587 18.6042 -2.11496 -116.506 79.6169 -130.615
lowerback -7.49852 -2.27126 -12.4408
upperback -0.0102558 -1.27705 -6.52861
thorax 4.38995 -0.666543 -0.0600821
lowerneck -17.6768 -8.59356 -15.8091
upperneck 4.1644 44.9273 0.482154
head 25.155 54.5734 175.336
rclavicle 1.43125e-014 2.54444e-014
rhumerus -101.63 47.9879 -127.772
rradius 96.6341
rwrist 21.1591
rhand -48.9463 2.97084
rfingers 7.12502
rthumb -21.5774 -25.8471
lclavicle 1.43125e-014 2.54444e-014
lhumerus -18.362 38.0382 39.9896
lradius 104.223
lwrist 4.39312
lhand -11.3003 15.4428
lfingers 7.12502
lthumb 14.7312 44.8994
rfemur -14.7507 11.1312 21.9104
rtibia 15.6606
rfoot -10.7086 -16.7931
rtoes -20.3841
lfemur -18.3407 -9.01374 -17.1446
ltibia 22.5454
lfoot -5.14637 7.39007
ltoes -11.8389
1753
root 3.33058 18.6013 -2.12656 -117.722 79.6261 -131.855
lowerback -7.55384 -2.30262 -12.4155
upperback 0.0158542 -1.31211 -6.48425
thorax 4.45248 -0.688192 -0.0338776
lowerneck -17.7883 -8.61342 -15.826
upperneck 4.1387 44.9778 0.448671
head 25.1598 54.493 175.312
rclavicle 4.69132e-014 1.59028e-013
rhumerus -101.387 47.9656 -127.533
rradius 96.6106
rwrist 21.0756
rhand -48.9509 3.29282
rfingers 7.12502
rthumb -21.5819 -25.5246
lclavicle 4.69132e-014 1.59028e-013
lhumerus -18.449 38.142 40.1436
lradius 104.135
lwrist 4.41814
lhand -11.1955 15.4136
lfingers 7.12502
lthumb 14.8321 44.8627
rfemur -14.702 11.1173 21.7353
rtibia 15.6965
rfoot -10.9278 -16.9738
rtoes -20.2803
lfemur -18.3792 -9.00941 -17.3488
ltibia 22.6008
lfoot -5.31225 7.50178
ltoes -11.7949
1754
root 3.33259 18.5949 -2.13638 -119.051 79.584 -133.209
lowerback -7.55684 -2.34797 -12.3469
upperback 0.0274202 -1.38121 -6.4411
thorax 4.47153 -0.72352 -0.0341894
lowerneck -17.906 -8.62421 -15.8446
upperneck 4.12311 45.0672 0.425034
head 25.1795 54.4605 175.288
rclavicle 3.97569e-015 6.36111e-014
rhumerus -101.318 47.9469 -127.515
rradius 96.5875
rwrist 20.7248
rhand -48.9034 3.98226
rfingers 7.12502
rthumb -21.5363 -24.8404
lclavicle 3.97569e-015 6.36111e-014
lhumerus -18.5361 38.2104 40.2298
lradius 104.083
lwrist 4.54579
lhand -11.2526 15.4428
lfingers 7.12502
lthumb 14.7772 44.896
rfemur -14.6599 11.0341 21.592
rtibia 15.7213
rfoot -11.1968 -17.1206
rtoes -20.0557
lfemur -18.4523 -9.06189 -17.5055
ltibia 22.6734
lfoot -5.46481 7.53724
ltoes -11.7963
1755
root 3.33479 18.5876 -2.14577 -119.877 79.5394 -134.038
lowerback -7.53477 -2.35862 -12.2239
upperback -0.00337716 -1.42238 -6.3802
thorax 4.4268 -0.741474 -0.0391706
lowerneck -17.9642 -8.61876 -15.8798
upperneck 4.15823 45.2417 0.433144
head 25.2032 54.4478 175.232
rclavicle -1.27222e-014 6.36111e-015
rhumerus -101.345 47.9293 -127.543
rradius 96.5718
rwrist 20.5712
rhand -48.9739 4.1497
rfingers 7.12502
rthumb -21.604 -24.6652
lclavicle -1.27222e-014 6.36111e-015
lhumerus -18.7767 38.1752 40.2329
lradius 104.079
lwrist 4.57244
lhand -11.3043 15.5321
lfingers 7.12502
lthumb 14.7273 44.989
rfemur -14.6305 11.0643 21.5047
rtibia 15.7824
rfoot -11.4342 -17.2645
rtoes -19.962
lfemur -18.522 -9.08189 -17.6049
ltibia 22.7683
lfoot -5.57409 7.50857
ltoes -11.9445
1756
root 3.3409 18.5799 -2.1581 -120.612 79.5217 -134.724
lowerback -7.53677 -2.36475 -12.0869
upperback -0.025584 -1.45581 -6.3019
thorax 4.40401 -0.757464 -0.0336038
lowerneck -18.0115 -8.61486 -15.8811
upperneck 4.20982 45.4778 0.439948
head 25.2852 54.4035 175.247
rclavicle 6.36111e-015 -6.36111e-015
rhumerus -101.352 47.8744 -127.45
rradius 96.5759
rwrist 20.6525
rhand -49.1661 4.05016
rfingers 7.12502
rthumb -21.7885 -24.7434
lclavicle 6.36111e-015 -6.36111e-015
lhumerus -19.1306 38.1725 40.2432
lradius 104.082
lwrist 4.5131
lhand -11.2339 15.5974
lfingers 7.12502
lthumb 14.7952 45.0493
rfemur -14.5507 11.1697 21.393
rtibia 15.8735
rfoot -11.753 -17.4309
rtoes -19.808
lfemur -18.5102 -9.15253 -17.727
ltibia 22.8824
lfoot -5.66586 7.60566
ltoes -12.0802
1757
root 3.34589 18.5716 -2.17152 -121.744 79.5367 -135.81
lowerback -7.54269 -2.40275 -12.0015
upperback -0.004989 -1.51791 -6.2418
thorax 4.43324 -0.790761 -0.0247876
lowerneck -18.147 -8.663 -15.7844
upperneck 4.14118 45.4712 0.347301
head 25.336 54.0321 175.366
rclavicle 1.19271e-014 1.145e-013
rhumerus -101.239 47.896 -127.29
rradius 96.6064
rwrist 20.6065
rhand -49.2157 4.30447
rfingers 7.12502
rthumb -21.8362 -24.4835
lclavicle 1.19271e-014 1.145e-013
lhumerus -19.3894 38.2758 40.306
lradius 104.026
lwrist 4.40548
lhand -11.1448 15.4614
lfingers 7.12502
lthumb 14.881 44.907
rfemur -14.4738 11.1456 21.2151
rtibia 15.9875
rfoot -12.1158 -17.5359
rtoes -19.51
lfemur -18.4962 -9.17563 -17.9417
ltibia 22.9928
lfoot -5.81638 7.77622
ltoes -11.8275
1758
root 3.34824 18.5612 -2.18322 -123.146 79.6244 -137.214
lowerback -7.56382 -2.42123 -11.9995
upperback 0.00351201 -1.53947 -6.22245
thorax 4.45659 -0.802995 -0.00916063
lowerneck -18.2551 -8.70456 -15.7635
upperneck 4.08332 45.4193 0.287782
head 25.3152 53.8126 175.362
rclavicle 1.27222e-014 3.18055e-015
rhumerus -101.076 47.8724 -127.129
rradius 96.6193
rwrist 20.5089
rhand -49.1558 4.7129
rfingers 7.12502
rthumb -21.7787 -24.0818
lclavicle 1.27222e-014 3.18055e-015
lhumerus -19.4552 38.2838 40.4671
lradius 103.898
lwrist 4.34242
lhand -11.1654 15.2724
lfingers 7.12502
lthumb 14.8612 44.7194
rfemur -14.4704 11.1321 20.9271
rtibia 16.1559
rfoot -12.4484 -17.6396
rtoes -19.0147
lfemur -18.5359 -9.22537 -18.2398
ltibia 23.081
lfoot -5.95389 7.85323
ltoes -11.3407
